# xmcd
#
# Track frame offsets:
#   150
#   13214
#   23373
#   32567
#   45283
#   62579
#   72623
#   86081
#   100117
#   111763
#   129268
#   144119
#   157583
#   169717
#   184693
#   198349
#   207986
#   223285
#   232775
#   242652
#   256527
#   261462
#   273603
#   286256
#   297053
#   306213
#   318605
#   329175
#
# Disc length: 4611 seconds
#
# Revision: 0
# Processed by: cddbd v1.5.2PL0 Copyright (c) Steve Scherf et al.
# Submitted via: uFREEDB ActiveX Control 1.5
#
DISCID=8d12011c
DTITLE=lamb 1 - lamb 1
DYEAR=1900
DGENRE=Blues
TTITLE0=lamb 1
TTITLE1=lamb 2
TTITLE2=lamb 3
TTITLE3=lamb 4
TTITLE4=lamb 5
TTITLE5=lamb 16
TTITLE6=lamb 17
TTITLE7=lamb 18
TTITLE8=lamb 19
TTITLE9=lamb 10
TTITLE10=lamb 11
TTITLE11=lamb 112
TTITLE12=lamb 1 123
TTITLE13=lamb 1114
TTITLE14=lamb 1115
TTITLE15=lamb 1116
TTITLE16=lamb 117
TTITLE17=lamb 118
TTITLE18=lamb 119
TTITLE19=lamb 120
TTITLE20=lamb 121
TTITLE21=lamb 122
TTITLE22=lamb 123
TTITLE23=lamb 124
TTITLE24=lamb 125
TTITLE25=lamb 126
TTITLE26=lamb 127
TTITLE27=lamb 128
EXTD=
EXTT0=
EXTT1=
EXTT2=
EXTT3=
EXTT4=
EXTT5=
EXTT6=
EXTT7=
EXTT8=
EXTT9=
EXTT10=
EXTT11=
EXTT12=
EXTT13=
EXTT14=
EXTT15=
EXTT16=
EXTT17=
EXTT18=
EXTT19=
EXTT20=
EXTT21=
EXTT22=
EXTT23=
EXTT24=
EXTT25=
EXTT26=
EXTT27=
PLAYORDER=
